<mxfile host="app.diagrams.net" modified="2020-09-12T10:44:43.537Z" agent="5.0 (X11)" etag="AmLHB155ZIuNNhwsQYtR" version="13.6.9" type="github">
  <diagram id="HhLDTW1MC4_XHum3Yrv-" name="Page-1">
    <mxGraphModel dx="1359" dy="776" grid="1" gridSize="10" guides="1" tooltips="1" connect="1" arrows="1" fold="1" page="1" pageScale="1" pageWidth="850" pageHeight="1100" math="0" shadow="0">
      <root>
        <mxCell id="0" />
        <mxCell id="1" parent="0" />
      </root>
    </mxGraphModel>
  </diagram>
</mxfile>
